<?xml version="1.0" encoding="UTF-8" standalone="no"?>
<!-- Created with Inkscape (http://www.inkscape.org/) -->

<svg
   xmlns:dc="http://purl.org/dc/elements/1.1/"
   xmlns:cc="http://creativecommons.org/ns#"
   xmlns:rdf="http://www.w3.org/1999/02/22-rdf-syntax-ns#"
   xmlns:svg="http://www.w3.org/2000/svg"
   xmlns="http://www.w3.org/2000/svg"
   xmlns:sodipodi="http://sodipodi.sourceforge.net/DTD/sodipodi-0.dtd"
   xmlns:inkscape="http://www.inkscape.org/namespaces/inkscape"
   id="svg2"
   version="1.1"
   inkscape:version="0.48.2 r9819"
   width="76.776749"
   height="97.500008"
   sodipodi:docname="logo_eiffel.png">
  <metadata
     id="metadata8">
    <rdf:RDF>
      <cc:Work
         rdf:about="">
        <dc:format>image/svg+xml</dc:format>
        <dc:type
           rdf:resource="http://purl.org/dc/dcmitype/StillImage" />
        <dc:title></dc:title>
      </cc:Work>
    </rdf:RDF>
  </metadata>
  <defs
     id="defs6" />
  <sodipodi:namedview
     pagecolor="#ffffff"
     bordercolor="#666666"
     borderopacity="1"
     objecttolerance="10"
     gridtolerance="10"
     guidetolerance="10"
     inkscape:pageopacity="0"
     inkscape:pageshadow="2"
     inkscape:window-width="1680"
     inkscape:window-height="975"
     id="namedview4"
     showgrid="false"
     fit-margin-top="0"
     fit-margin-left="0"
     fit-margin-right="0"
     fit-margin-bottom="0"
     inkscape:zoom="2.36"
     inkscape:cx="89.389709"
     inkscape:cy="5.0050867"
     inkscape:window-x="0"
     inkscape:window-y="24"
     inkscape:window-maximized="1"
     inkscape:current-layer="svg2" />
  <g
     id="g3979"
     transform="translate(100.1731,-4.4962152)">
    <path
       id="path3977"
       d="m -96.272073,100.62344 c 0,-0.923897 1.702826,-1.536387 5.207722,-1.873163 2.864248,-0.275218 5.376748,-1.007471 5.583334,-1.627229 0.757393,-2.272179 2.208944,-1.041276 2.208944,1.873167 l 0,3.000005 -6.5,0 c -4.843367,0 -6.5,-0.34988 -6.5,-1.37278 z"
       style="fill:#000000"
       inkscape:connector-curvature="0" />
    <path
       id="path3975"
       d="m -77.272073,96.996215 c 0,-4.992607 0.0049,-5 3.30887,-5 4.621248,0 6.939267,1.943437 6.526918,5.472195 -0.184684,1.580462 -0.89427,3.05693 -1.576859,3.28104 -0.890034,0.29223 -1.067554,-0.46011 -0.627611,-2.659827 0.518423,-2.592111 0.245925,-3.208867 -1.758928,-3.981055 -1.664054,-0.640927 -2.784319,-0.520806 -3.75204,0.402313 -2.006182,1.913718 -0.644592,6.245029 2.1313,6.779819 1.623912,0.31285 1.345722,0.47097 -1.00165,0.56933 l -3.25,0.13619 0,-5.000005 z"
       style="fill:#000000"
       inkscape:connector-curvature="0" />
    <path
       id="path3973"
       d="m -65.272073,96.996215 c 0,-2.75 0.45,-5 1,-5 0.55,0 1,2.25 1,5 0,2.75 -0.45,5.000005 -1,5.000005 -0.55,0 -1,-2.250005 -1,-5.000005 z"
       style="fill:#000000"
       inkscape:connector-curvature="0" />
    <path
       id="path3971"
       d="m -61.736654,101.05353 c -0.392693,-0.6354 0.344235,-1.057315 1.846715,-1.057315 2.120234,0 2.649815,-0.645843 3.484931,-4.25 l 0.984763,-4.25 -0.175914,5 c -0.162373,4.615115 -0.380334,5.023655 -2.831478,5.307315 -1.46056,0.16902 -2.949617,-0.16848 -3.309017,-0.75 z"
       style="fill:#000000"
       inkscape:connector-curvature="0" />
    <path
       id="path3969"
       d="m -51.049567,100.43951 c -2.752499,-1.927924 -2.818771,-3.84703 -0.222506,-6.443295 4.372856,-4.372856 13.0075,-1.150334 11.62946,4.340213 -0.931227,3.710302 -7.407595,4.904352 -11.406954,2.103082 z"
       style="fill:#000000"
       inkscape:connector-curvature="0" />
    <path
       id="path3967"
       d="m -43.819126,99.8357 c 4.490391,-2.045959 2.152415,-6.269741 -3.133925,-5.661743 -3.380697,0.388825 -4.38412,3.570271 -1.736633,5.506161 2.166918,1.584492 1.762782,1.571582 4.870558,0.155582 z"
       style="fill:#000000"
       inkscape:connector-curvature="0" />
    <path
       id="path3965"
       d="m -37.272073,97.055232 c 0,-3.054218 0.441906,-5.059017 1.11513,-5.059017 0.613321,0 2.638321,1.662938 4.5,3.695417 l 3.38487,3.695417 0,-3.754434 c 0,-2.248312 0.401158,-3.506505 1,-3.1364 1.33421,0.824587 1.284698,8.206015 -0.06062,9.037465 -0.583342,0.36053 -2.58961,-1.07542 -4.458374,-3.190983 l -3.397753,-3.846482 -0.04163,3.190983 c -0.02289,1.755041 -0.491627,3.469102 -1.041627,3.809022 -0.616332,0.38091 -1,-1.32295 -1,-4.440988 z"
       style="fill:#000000"
       inkscape:connector-curvature="0" />
    <path
       id="path3963"
       d="m -96.272073,93.612846 c 0,-0.889147 0.744744,-1.616631 1.654988,-1.616631 1.486635,0 1.470304,-0.204072 -0.160536,-2.006131 -0.998538,-1.103372 -1.575489,-2.246165 -1.282113,-2.539541 0.73219,-0.73219 12.787661,2.688681 12.787661,3.628638 0,0.415285 -1.9125,1.208095 -4.25,1.761798 -2.3375,0.553704 -5.2625,1.317631 -6.5,1.697617 -1.690384,0.519047 -2.25,0.288796 -2.25,-0.92575 z"
       style="fill:#000000"
       inkscape:connector-curvature="0" />
    <path
       id="path3961"
       d="m -31.671453,84.530168 c -5.918046,-5.918046 -14.668436,-27.267322 -14.959732,-36.498882 -0.114616,-3.632334 0.209716,-4.536436 1.739285,-4.848393 2.469299,-0.503618 2.937898,0.357537 7.244458,13.313322 3.915773,11.780149 8.20777,21.101111 12.015609,26.094391 3.012479,3.950312 2.983698,5.405609 -0.106907,5.405609 -1.481111,0 -3.851523,-1.384857 -5.932713,-3.466047 z"
       style="fill:#830206;fill-opacity:1"
       inkscape:connector-curvature="0" />
    <path
       id="path3959"
       d="m -42.402257,52.393488 c -0.671131,-2.665303 -1.392744,-4.328488 -1.603585,-3.695966 -0.471435,1.414305 1.678592,9.687203 2.344521,9.021274 0.263616,-0.263616 -0.0698,-2.660005 -0.740936,-5.325308 z"
       style="fill:#ffffff;fill-opacity:1"
       inkscape:connector-curvature="0" />
    <path
       id="path3957"
       d="m -75.74111,84.832042 c 0.39612,-1.284705 2.522346,-6.577753 4.724947,-11.762329 3.235359,-7.615528 3.787577,-9.774217 2.874409,-11.236431 -1.790803,-2.867532 -1.345755,-4.547475 1.797682,-6.785799 3.064647,-2.182221 5.908608,-8.639748 4.429935,-10.058656 -0.471865,-0.452793 -1.982936,-0.973864 -3.357936,-1.157936 -3.786081,-0.506844 -3.007791,-3.015544 1.749713,-5.639933 4.958099,-2.735044 4.871111,-2.442019 5.995098,-20.194743 l 0.854732,-13.4999998 1.849048,4 c 1.264732,2.7359638 2.001447,7.2390928 2.33131,14.2499998 l 0.482261,10.25 4.618919,0.01531 c 9.346474,0.03099 9.540686,3.705449 0.331183,6.265919 -5.220176,1.451338 -6.142513,2.079922 -7.10556,4.842523 -1.759628,5.047671 -1.377561,7.431804 1.393296,8.694291 3.673244,1.673642 3.104458,3.942102 -1.284775,5.124 -3.504274,0.943603 -4.115704,1.699249 -8.25,10.195905 -5.119913,10.522263 -8.979082,16.263914 -12.028473,17.895898 -1.944658,1.04075 -2.064573,0.938558 -1.405789,-1.198022 z"
       style="fill:#0d367f;fill-opacity:1"
       inkscape:connector-curvature="0" />
    <path
       id="path3955"
       d="m -57.258284,55.996215 c 2.414472,0 2.537429,-0.876455 0.347594,-2.477701 -1.44132,-1.053919 -1.489848,-1.818329 -0.403041,-6.348648 0.679567,-2.832753 2.124606,-6.280679 3.211197,-7.662056 2.553025,-3.245645 0.860745,-3.279657 -5.389684,-0.108325 -4.541236,2.304125 -4.621804,2.419582 -2.125614,3.046086 2.420151,0.607419 2.560173,0.95601 2.083333,5.186528 -0.374743,3.324704 -1.365414,5.416668 -3.711293,7.837001 -2.171585,2.240507 -2.824721,3.533652 -2.03216,4.023481 0.698502,0.431698 0.915312,1.783291 0.539418,3.362728 -0.345683,1.452499 -0.843991,3.540906 -1.107352,4.640906 -0.263361,1.1 1.114214,-1.0375 3.061277,-4.75 2.5591,-4.879482 4.090521,-6.75 5.526325,-6.75 z"
       style="fill:#ffffff;fill-opacity:1"
       inkscape:connector-curvature="0" />
    <path
       id="path3953"
       d="m -95.561777,85.373177 c -0.390663,-0.390662 -0.710296,-1.93715 -0.710296,-3.43664 0,-2.47905 1.513735,-3.940322 4.081788,-3.940322 1.415177,0 1.087168,2.99589 -0.331788,3.030409 -0.6875,0.01672 -0.453419,0.494167 0.520179,1.060983 2.20215,1.282061 6.731606,0.145779 4.620308,-1.159075 -1.898968,-1.173626 0.382583,-3.425244 2.606167,-2.571975 1.148329,0.440656 1.538191,1.589857 1.317217,3.882783 -0.308869,3.204971 -0.402156,3.261555 -5.853575,3.550504 -3.046837,0.161496 -5.859337,-0.026 -6.25,-0.416667 z"
       style="fill:#000000"
       inkscape:connector-curvature="0" />
    <path
       id="path3951"
       d="m -96.272073,73.996215 c 0,-3.055256 2.305334,-4.256442 3.358626,-1.75 0.36723,0.873869 0.883735,0.678529 1.716507,-0.649177 1.146865,-1.82847 1.258408,-1.810097 2.995996,0.493474 1.614872,2.140884 1.87518,2.209194 2.473815,0.649178 1.055708,-2.751133 2.455056,-2.034931 2.455056,1.256525 l 0,3 -6.5,0 -6.5,0 0,-3 z"
       style="fill:#000000"
       inkscape:connector-curvature="0" />
    <path
       id="path3949"
       d="m -99.926996,73.453087 c -0.809814,-2.110341 0.541849,-3.249699 1.693983,-1.427912 1.224208,1.935752 1.19966,2.97104 -0.07045,2.97104 -0.567261,0 -1.297854,-0.694408 -1.623538,-1.543128 z"
       style="fill:#000000"
       inkscape:connector-curvature="0" />
    <path
       id="path3947"
       d="m -96.272073,65.996215 c 0,-3.070115 2.260337,-4.227849 3.416667,-1.75 0.466666,1 0.7,1 1.166666,0 0.693382,-1.485817 3.416667,-1.685082 3.416667,-0.25 0,0.55 0.675,1 1.5,1 0.825,0 1.5,-0.45 1.5,-1 0,-0.55 0.45,-1 1,-1 0.55,0 1,1.35 1,3 l 0,3 -6.5,0 -6.5,0 0,-3 z"
       style="fill:#000000"
       inkscape:connector-curvature="0" />
    <path
       id="path3945"
       d="m -96.272073,53.496215 c 0,-2.623906 2.370749,-3.491253 3.416667,-1.25 0.466666,1 0.7,1 1.166666,0 0.693382,-1.485817 3.416667,-1.685082 3.416667,-0.25 0,0.55 0.675,1 1.5,1 0.825,0 1.5,-0.45 1.5,-1 0,-0.55 0.45,-1 1,-1 0.55,0 1,1.125 1,2.5 0,2.410256 -0.233333,2.5 -6.5,2.5 -6.266667,0 -6.5,-0.08974 -6.5,-2.5 z"
       style="fill:#000000"
       inkscape:connector-curvature="0" />
    <path
       id="path3943"
       d="m -96.272073,46.996215 c 0,-0.564103 2.833333,-1 6.5,-1 3.666667,0 6.5,0.435897 6.5,1 0,0.564103 -2.833333,1 -6.5,1 -3.666667,0 -6.5,-0.435897 -6.5,-1 z"
       style="fill:#000000"
       inkscape:connector-curvature="0" />
    <path
       id="path3941"
       d="m -96.272073,40.996215 c 0,-3.35018 1.594373,-3.902562 3.607954,-1.25 1.26518,1.666667 1.329954,1.666667 1.360243,0 0.03298,-1.814877 3.031803,-2.535512 3.031803,-0.728561 0,0.561791 1.125,1.534023 2.5,2.160515 4.157257,1.894173 2.84589,2.818046 -4,2.818046 l -6.5,0 0,-3 z"
       style="fill:#000000"
       inkscape:connector-curvature="0" />
    <path
       id="path3939"
       d="m -96.272073,32.996215 c 0,-2 0.5,-3 1.5,-3 0.825,0 1.5,0.675 1.5,1.5 0,1.81512 1.652982,1.995727 2.288097,0.25 0.3619,-0.994747 0.838373,-0.988818 2.333333,0.02903 1.033214,0.70347 2.66607,1.543454 3.62857,1.866634 3.709837,1.245655 1.473013,2.354336 -4.75,2.354336 l -6.5,0 0,-3 z"
       style="fill:#000000"
       inkscape:connector-curvature="0" />
    <path
       id="path3937"
       d="m -96.272073,24.996215 c 0,-2 0.5,-3 1.5,-3 0.825,0 1.5,0.675 1.5,1.5 0,0.825 0.45,1.5 1,1.5 0.55,0 1,-0.675 1,-1.5 0,-2.077943 2.635708,-1.887745 3.464431,0.25 0.646104,1.666667 0.739782,1.666667 1.967232,0 1.853328,-2.516503 2.568337,-2.168511 2.568337,1.25 l 0,3 -6.5,0 -6.5,0 0,-3 z"
       style="fill:#000000"
       inkscape:connector-curvature="0" />
    <path
       id="path3933"
       d="m -96.272073,18.996215 c 0,-0.55 1.4625,-1.006145 3.25,-1.013655 4.750453,-0.01996 7.75,-1.02741 7.75,-2.602976 0,-0.760853 0.45,-1.383369 1,-1.383369 0.55,0 1,1.35 1,3 l 0,3 -6.5,0 c -3.666667,0 -6.5,-0.435897 -6.5,-1 z"
       style="fill:#000000"
       inkscape:connector-curvature="0" />
  </g>
</svg>
