<?xml version="1.0" encoding="UTF-8" standalone="no"?>
<svg xmlns:rdf="http://www.w3.org/1999/02/22-rdf-syntax-ns#" xmlns="http://www.w3.org/2000/svg" version="1.0" xmlns:cc="http://creativecommons.org/ns#" viewBox="0 0 256 100" xmlns:dc="http://purl.org/dc/elements/1.1/">
<metadata>
<rdf:RDF>
<cc:Work rdf:about="">
<dc:format>image/svg+xml</dc:format>
<dc:type rdf:resource="http://purl.org/dc/dcmitype/StillImage"/>
<dc:title/>
</cc:Work>
</rdf:RDF>
</metadata>
<g transform="translate(-17.74 -16.763)" fill-rule="evenodd">
<g transform="matrix(.63172 0 0 .63172 143.85 113.19)" fill-opacity=".94118">
<path d="m3.86 0h-0.01c-0.94 0-1.77 0.31-2.55 0.94-0.58 0.46-0.98 1.08-1.3 1.77h0.04c0.32-0.69 0.72-1.31 1.29-1.77 0.78-0.63 1.61-0.93 2.53-0.94z" fill-opacity=".94118"/>
</g>
<path d="m258.68 16.763-0.0565 0.0038c-4.5899 0.3217-10.695 1.6679-16.491 3.9259h-202.46l-21.932 92.997h142.66c3.0284 1.7177 6.7082 2.7195 10.818 3.0676l0.0683 0.006h7.1781l0.0624-0.004c2.2954-0.174 4.6909-0.49763 7.1664-0.96821 4.268-0.81107 8.769-2.053 13.434-3.7061 3.5316-1.2516 7.1576-2.7304 10.835-4.4488 8.0032-3.7287 16.253-8.5285 24.345-14.318 2.6661-1.906 5.2226-3.8616 7.6771-5.849 2.2514-1.8207 4.4136-3.6693 6.4782-5.5402l0.008-0.0095 0.01-0.0095c5.7992-5.4317 10.205-10.954 12.759-15.944 1.3303-2.5987 2.164-5.0562 2.3725-7.3383 0.20852-2.2821-0.24228-4.4429-1.5615-6.137-1.0023-1.2892-2.4714-2.052-4.1037-2.5901 5.1081-4.0669 9.4154-8.3777 12.138-12.63 3.1651-4.9444 4.5766-9.845 3.0315-13.97v-0.0019c-0.9885-2.649-3.2266-4.6397-6.1682-5.6709-1.3068-0.45686-2.736-0.73298-4.2616-0.85831l-0.0663-0.0057h-3.9321zm0.15011 3.0638h3.6124c1.2874 0.10807 2.4406 0.3384 3.4292 0.684 2.2412 0.78569 3.619 2.0785 4.2733 3.833v0.0038c1.0402 2.7753 0.14082 6.796-2.7449 11.304-2.8857 4.5079-7.656 9.3941-13.715 13.813l-3.3453 2.4385 4.17 0.31452c2.4662 0.1857 4.0902 0.92682 5.018 2.1202v0.0019c0.76047 0.97657 1.0952 2.2718 0.93576 4.0168-0.15945 1.745-0.8468 3.8853-2.0548 6.245-2.3197 4.5323-6.521 9.8546-12.122 15.101l-0.002 0.0019c-2.0145 1.8249-4.1243 3.6304-6.3242 5.4094-2.4086 1.9502-4.9181 3.8675-7.5309 5.7353-7.938 5.6797-16.027 10.384-23.84 14.025-3.5853 1.6753-7.1179 3.1167-10.551 4.3332-4.5286 1.6048-8.8773 2.8013-12.96 3.5772-2.3517 0.44705-4.6123 0.75047-6.7628 0.91515h-6.87c-0.0268-0.002-0.0512-0.007-0.0779-0.01h0.61799c-6.2866-0.53316-11.251-2.6781-14.208-6.588-0.54856-0.72315-1.0005-1.5022-1.3978-2.3172-0.25222-0.60056-0.4895-1.2061-0.72912-1.8189-0.63056-1.9488-0.8816-4.1113-0.7681-6.4156 0.31528-6.4225 3.416-14.062 8.7883-22.062 5.7065-8.5018 13.977-17.412 24.217-25.681 2.2952-1.852 4.6683-3.6815 7.1527-5.4587 3.0708-2.1958 6.1641-4.2174 9.2601-6.1086 11.407-6.9796 22.786-11.864 32.869-14.345-9.6348 3.055-20.459 8.2413-31.153 15.302-0.38462 0.25249-0.76602 0.51053-1.1444 0.76547-5.9335 3.9957-11.308 8.2405-16 12.526-15.095 13.795-23.074 28.088-19.448 36.462 0.25852 0.57606 0.5666 1.1275 0.92601 1.6484 3.8968 5.5706 13.555 6.5338 25.794 3.5431 0.83232-0.20225 1.6651-0.43172 2.5227-0.67073 3.9094-1.097 8.0594-2.579 12.334-4.4052 1.0278-0.44124 2.0666-0.89522 3.1134-1.3794 0.10719-0.04902 0.20862-0.09832 0.31581-0.15348 13.494-6.5162 23.863-14.014 26.108-18.519 0.49184-0.97991 0.61102-1.8137 0.27683-2.4688-1.6016-3.1561-12.809-1.0246-26.385 4.6913-1.0908 0.45962-2.1942 0.93245-3.3102 1.4362 0.90799-0.81935 1.8523-1.6422 2.817-2.4518 1.5385-1.2882 3.1308-2.5473 4.827-3.7913 2.6546-1.9537 5.3392-3.7205 7.9812-5.2863 12.371-9.0711 18.625-17.652 17.319-20.836-0.24592-0.59997-0.7681-1.0125-1.5752-1.2638-2.579-0.79729-7.286 0.15492-13.005 2.4328-4.7165 1.8802-10.133 4.6693-15.625 8.1397l-0.75055 0.47747-0.13647 0.07769-2.6416 1.7034c-0.00001-0.000004 1.5187-2.7 1.5187-2.7 2.2511-4.0049 5.9173-8.1839 10.482-12.066 3.3482-2.838 7.172-5.5119 11.29-7.8517 1.5574-0.88615 3.1135-1.7096 4.671-2.4518 1.5953-0.75746 3.1915-1.4299 4.749-2.0292 4.5249-1.7392 8.8445-2.7954 12.611-3.0827h-2.6884c2.145-0.44419 4.1586-0.74518 5.866-0.86589zm-106.02 0.99852c-0.61792 9.1661 1.2121 22.593 5.3611 37.498 0.73774 2.6523 1.5404 5.3508 2.4232 8.081 0.54858 1.6859 1.114 3.3455 1.6941 4.9793-0.34049 0.48659-0.68241 0.97168-1.004 1.457-5.1768 7.7107-8.2028 14.996-8.9657 21.333-2.188-7.1211-3.8353-14.921-4.7685-23.191-0.26483-2.3698-0.47342-4.7122-0.61214-7.0275-1.0215-16.818 1.2374-32.065 5.8719-43.13zm-103.31 11.931c0.11808-0.0027 0.23462 0 0.35481 0h23.312c1.9925-0.000007 3.5329 0.3646 4.6301 1.0933 1.0908 0.73295 1.5004 1.6812 1.2418 2.8345l-2.78 12.198c0 0.00001-8.2152 0-8.2152 0l2.6981-11.874h-20.571l-7.4295 32.635-2.6786 11.816c0 0.000011 20.552 0 20.552 0l0.01949-0.07579 4.1193-18.079h-9.6559l0.92601-4.0793h17.873l-5.1233 22.56c-0.06936 0.32111-0.19086 0.61198-0.35481 0.9-0.42246 0.74766-1.1595 1.3885-2.1873 1.9156-1.425 0.72929-3.1307 1.0914-5.1233 1.0914 0 0.00002-23.291 0-23.291 0-1.9925 0.00002-3.5349-0.36208-4.632-1.0914-1.092-0.731-1.506-1.663-1.241-2.818l10.266-45.1c0.26483-1.1533 1.0894-2.1016 2.5207-2.8345 0.05045-0.02635 0.10747-0.03361 0.15791-0.05874 1.3064-0.636 2.8393-0.99386 4.6106-1.0345zm36.534 0h29.34c1.9673-0.000007 3.5134 0.3646 4.6106 1.0933 1.1035 0.73295 1.5262 1.6812 1.2613 2.8345 0.00001 0.000008-5.4781 24.054-5.4781 24.054-0.25852 1.146-1.1045 2.0795-2.5421 2.8137-1.4377 0.73662-3.1302 1.1122-5.1038 1.1122h-21.32l-4.1173 18.059-0.67063 2.969c0.000003 0.000019-8.0397 0-8.0397 0l0.61019-2.681 11.449-50.254zm40.532 0h8.0397l-9.1042 39.969c0.00001 0.000007-1.9904 8.7328-1.9904 8.7328 0 0.000011 19.232 0 19.232 0 0.20178 1.4334 0.4379 2.8417 0.69012 4.2328-0.00001 0.000019-28.927 0-28.927 0 0.00001 0.000019 2.2868-10.036 2.2868-10.036l9.7728-42.898zm-33.459 4.2518-5.3397 23.404h20.041l5.3202-23.404h-20.021zm-16.849 52.358c0.07864-0.0026 0.15862 0 0.23784 0 0.93321 0.00001 1.748 0.16013 2.4037 0.46042 0.69991 0.31867 1.2003 0.79215 1.4777 1.4172 0.27114 0.60671 0.34193 1.2944 0.1969 2.0482l-0.05848 0.288c0.000004-0.00001-2.3063 0-2.3063 0l0.01949-0.26716c0.0596-0.52666-0.0072-0.94103-0.21639-1.2259-0.02726-0.03574-0.06765-0.08357-0.09942-0.11559-0.05202-0.05162-0.13001-0.11088-0.1969-0.15347-0.32258-0.19748-0.82707-0.30695-1.4777-0.30695-0.86385 0-1.5081 0.14731-1.9495 0.44147-0.42878 0.28803-0.70127 0.61055-0.78955 0.99663-0.08829 0.39221 0.05701 0.59831 0.15791 0.70863 0.0031 0.003 0.01567 0.01552 0.01949 0.01895 0.12776 0.10582 0.57212 0.35246 1.9514 0.66884 1.2485 0.29416 2.0755 0.55956 2.5421 0.78631 0.70622 0.3493 1.1997 0.80084 1.4582 1.3585 0.25851 0.55156 0.31554 1.198 0.15791 1.8966-0.15764 0.68024-0.51527 1.3083-1.0449 1.8966-0.52335 0.58832-1.1896 1.0527-1.9904 1.3775-0.7945 0.31867-1.6663 0.49831-2.5616 0.49831-1.135 0-2.046-0.16738-2.7585-0.49831-0.74405-0.34318-1.2814-0.88302-1.5966-1.5878-0.30266-0.68638-0.36715-1.4654-0.1969-2.3173l0.06044-0.26905h2.2653l-0.01949 0.26905c-0.05675 0.50865-0.000306 0.91758 0.13842 1.224 0.13241 0.29417 0.38405 0.53759 0.7876 0.72757 0.42877 0.20223 0.96551 0.30695 1.5771 0.30695 0.54858 0 1.0495-0.08889 1.4972-0.24821 0.44138-0.15321 0.79076-0.3565 1.043-0.61389 0.24591-0.25741 0.39118-0.52815 0.45423-0.82231 0.06305-0.26352 0.04871-0.48687-0.05848-0.67073-0.1198-0.1961-0.35709-0.37019-0.72911-0.51727l-1.933-0.555c-1.0782-0.26352-1.8039-0.51422-2.2263-0.76548-0.57381-0.33093-0.98845-0.75512-1.2028-1.2638-0.21438-0.50253-0.2362-1.0606-0.09748-1.6674 0.14503-0.6496 0.46687-1.2674 0.965-1.8189 0.50445-0.55769 1.1564-0.9947 1.932-1.2827 0.68572-0.24992 1.4057-0.39767 2.1659-0.42252zm20.69 0.03978c0.12471-0.0094 0.24188 0 0.3743 0l1.4192 0.15158 0.47373 0.03979-0.69013 1.7034-0.13841 0.26905-1.0839-0.09663c-0.32 0-0.55533 0.04826-0.70962 0.15348-0.01025 0.0076-0.02954 0.02985-0.03899 0.03789-0.02068 0.01762-0.0546 0.04944-0.07798 0.07769-0.09488 0.12093-0.21121 0.33689-0.29632 0.72757-0.00002 0-0.04016 0.16598-0.07799 0.30694h1.6941l-0.4328 1.8947h-1.6551c-0.12612 0.55155-1.6766 7.2966-1.6766 7.2966h-2.2848c-0.000007-0.00001 1.4854-6.4815 1.6746-7.2966h-1.3198l0.43278-1.8947h1.3003c0.06305-0.26352 0.15791-0.59494 0.15791-0.59494 0.13872-0.61283 0.28457-1.0521 0.47373-1.3585 0.25854-0.42285 0.62362-0.77714 1.0839-1.0345 0.37912-0.21411 0.85737-0.34182 1.3978-0.38273zm5.4586 0.09474-0.7486 3.276h1.4777l-0.43279 1.8947h-1.4777c-0.11981 0.52704-1.0644 4.6155-1.0644 4.6155 0.00001-0.00001-0.0799 0.49188-0.0799 0.63283 0.0001 0.0047-0.00039 0.0155 0 0.01895 0.00031 0.0015-0.00044 0.01776 0 0.01896 0.00061 0.00097 0.0207-0.000767 0.0215 0l0.23589 0.01895 1.0839-0.07579-0.11892 1.7034 0.0195 0.30695-1.5557 0.17242c-0.61792-0.00001-1.0719-0.0986-1.3997-0.30694-0.34679-0.22063-0.54771-0.51336-0.62969-0.88106-0.01261-0.0674-0.04093-0.16599-0.04093-0.30694 0-0.27578 0.05498-0.74095 0.23784-1.5499 0 0.00001 0.82743-3.6074 1.004-4.3673h-1.0839l0.43474-1.8947h1.0839c0.10088-0.44124 0.45229-1.9535 0.45229-1.9535l1.8325-0.93978 0.7486-0.38273zm-72.611 0.07769h8.8663l-0.49127 2.1448h-6.484c-0.10088 0.43511-0.50416 2.1972-0.64918 2.8345h5.6146l-0.49127 2.1448h-5.6165c-0.1198 0.53317-1.2028 5.2654-1.2028 5.2654h-2.3842l2.8385-12.39zm11.882 3.0259c0.08899-0.01063 0.18522 0 0.27488 0 0.56749 0 1.0922 0.16605 1.5966 0.51536l0.31582 0.21221-1.2223 1.9535-0.33531-0.23116c-0.24592-0.1532-0.51016-0.22926-0.7876-0.22926-0.23961 0-0.46312 0.08219-0.69012 0.22926-0.2396 0.15321-0.43937 0.35706-0.5907 0.63283-0.26483 0.47188-0.45828 1.0008-0.5907 1.5707l-1.0644 4.7103h-2.2868l2.1094-9.1913h2.1269s-0.07226 0.27855-0.09748 0.38273c0.10089-0.07353 0.20804-0.176 0.29632-0.23116 0.30542-0.17714 0.6277-0.28607 0.94551-0.32399zm6.7784 0c0.13763-0.01012 0.2726 0 0.41329 0 1.2863 0 2.2601 0.43757 2.897 1.3017 0.39724 0.55768 0.61019 1.2478 0.61019 2.069 0 0.45348-0.0576 0.94093-0.1774 1.4741l-0.1774 0.67073c0-0.00001-5.7804 0-6.4236 0-0.01262 0.12868-0.01949 0.2663-0.01949 0.38274 0 0.47802 0.10143 0.85347 0.31582 1.1293 0.10187 0.13481 0.2201 0.25637 0.35481 0.34484 0.25395 0.16096 0.58125 0.2482 0.965 0.2482 0.46661-0.00001 0.87669-0.12478 1.2613-0.36378 0.36573-0.22674 0.71452-0.58884 1.0235-1.0914 0-0.00001 2.4447 0 2.4447 0l-0.2164 0.46042c-0.46661 0.91926-1.1185 1.6362-1.932 2.1448-0.81341 0.50865-1.786 0.78442-2.858 0.78442-1.3935 0-2.4292-0.43759-3.0724-1.3017-0.63685-0.84573-0.77524-2.0155-0.43474-3.4863 0.3405-1.4953 1.02-2.6888 2.0099-3.5223 0.88731-0.74775 1.8952-1.1625 3.0159-1.2448zm10.266 0c0.13762-0.01012 0.27261 0 0.41329 0 1.2863 0 2.2601 0.43757 2.897 1.3017 0.39725 0.55768 0.61019 1.2478 0.61019 2.069 0 0.44736-0.05759 0.9281-0.1774 1.4551l-0.1774 0.68967c0-0.00001-5.7804 0-6.4236 0-0.0063 0.08579-0.01319 0.16241-0.01949 0.24821-0.0047 0.03218 0.0021 0.08168 0 0.11558-0.000185 0.0055 0 0.01359 0 0.01895 0 0.09194 0.0132 0.18136 0.01949 0.26716 0.03151 0.34931 0.12608 0.64148 0.29632 0.8621 0.03242 0.0429 0.06184 0.09631 0.09748 0.13452 0.2888 0.30029 0.69819 0.45853 1.2223 0.45853 0.46661-0.00001 0.88299-0.12478 1.2613-0.36379 0.36572-0.22674 0.71452-0.58884 1.0235-1.0914 0-0.00001 2.4642 0 2.4642 0l-0.235 0.459c-0.4666 0.91926-1.1185 1.6362-1.932 2.1448-0.81341 0.50865-1.786 0.78442-2.858 0.78442-1.3935 0-2.4292-0.43759-3.0724-1.3017-0.41616-0.55156-0.61214-1.2545-0.61214-2.088 0-0.1287 0.0069-0.26686 0.01949-0.40169 0.02523-0.31867 0.07594-0.64118 0.15791-0.99662 0.3405-1.4892 1.0005-2.6888 1.9904-3.5223 0.8873-0.74775 1.9147-1.1625 3.0354-1.2448zm27.96 0c0.14082-0.01054 0.2718 0 0.41524 0 1.3115 0 2.3192 0.43089 2.9749 1.2827 0.64947 0.85183 0.80598 2.0002 0.47178 3.4465-0.25852 1.1276-0.63166 2.0381-1.1424 2.7-0.51076 0.66186-1.1607 1.203-1.93 1.5707-0.76295 0.36771-1.5708 0.55516-2.3842 0.55516-1.3368 0-2.3337-0.44372-2.9769-1.3017-0.41617-0.54543-0.62969-1.2484-0.62969-2.088 0.000008-0.4535 0.0513-0.93481 0.1774-1.4741 0.37834-1.6424 1.1498-2.8938 2.2848-3.6966 0.83311-0.58448 1.7533-0.92109 2.739-0.99473zm34.621 0c0.16625-0.01 0.3208 0 0.49322 0 0.79449 0 1.4181 0.07717 1.891 0.26716 0.50444 0.19612 0.86265 0.47433 1.0644 0.80526 0.19548 0.31253 0.29632 0.69527 0.29632 1.1671 0.00001 0.000009-0.23784 1.3983-0.23784 1.3983l-0.43278 1.8966c-0.37204 1.6179-0.45286 2.2231-0.47179 2.4499-0.0189 0.30642 0.009 0.60527 0.0975 0.88105 0.00001-0.00001 0.15791 0.49831 0.15791 0.49831h-2.3258l-0.0975-0.2861c-0.0378-0.13482-0.0284-0.30721-0.0409-0.46042-0.44138 0.26351-0.88358 0.49801-1.2808 0.63283-0.58641 0.19612-1.1931 0.30506-1.8111 0.30506-1.0719 0-1.866-0.27019-2.3452-0.80337-0.36572-0.3922-0.53221-0.87183-0.53221-1.4173-0.00001-0.20835 0.0276-0.42504 0.078-0.65178 0.10719-0.46575 0.30319-0.89664 0.61216-1.2827 0.30266-0.37996 0.65892-0.69218 1.0625-0.91894 0.39095-0.22674 0.82682-0.388 1.2808-0.49831l1.3997-0.22926c1.0782-0.12257 1.8841-0.276 2.4642-0.44147 0.0126-0.06128 0.039-0.13452 0.039-0.13452 0.0914-0.39431 0.0802-0.6893-0.0195-0.84126-0.007-0.0098-0.0326-0.03136-0.0409-0.03978-0.0213-0.02205-0.0532-0.0559-0.078-0.07579-0.23716-0.18241-0.64071-0.26716-1.1814-0.26716-0.61163 0-1.065 0.09614-1.3802 0.2861-0.30897 0.18998-0.59581 0.53812-0.84803 1.0345 0-0.00001-2.3842 0-2.3842 0l0.21834-0.46042c0.28374-0.63736 0.62051-1.1644 1.043-1.5688 0.42247-0.40448 0.99305-0.71917 1.6551-0.93978 0.50739-0.16279 1.0614-0.26944 1.6551-0.30505zm9.9912 0c0.0889-0.01063 0.18521 0 0.27487 0 0.5738 0 1.1117 0.16605 1.6161 0.51536l0.29633 0.21221-1.2223 1.9535-0.33532-0.23116c-0.24591-0.1532-0.49696-0.22926-0.7681-0.22926-0.23961 0-0.47631 0.08219-0.70962 0.22926-0.2396 0.15321-0.41357 0.35706-0.57119 0.63283-0.25854 0.47188-0.45829 1.0008-0.5907 1.5707l-1.0839 4.7103h-2.2868l2.1094-9.1913h2.1288s-0.0547 0.27855-0.0799 0.38273c0.10088-0.07353 0.20175-0.176 0.29633-0.23116 0.30049-0.17714 0.60843-0.28607 0.92601-0.32399zm6.7589 0c0.1375-0.01012 0.2726 0 0.41329 0 1.2863 0 2.2664 0.43757 2.897 1.3017 0.40355 0.55768 0.6102 1.2478 0.6102 2.069-0.00001 0.45348-0.0771 0.94093-0.1969 1.4741l-0.15791 0.67073c0-0.00001-5.7867 0-6.4236 0-0.0126 0.12868-0.039 0.2663-0.039 0.38274 0 0.47802 0.10774 0.85347 0.31582 1.1293 0.0324 0.0429 0.0813 0.09631 0.11698 0.13452 0.0208 0.02145 0.0581 0.05589 0.0799 0.07579 0.2819 0.24906 0.66506 0.38273 1.1424 0.38273 0.46661-0.00001 0.87669-0.12478 1.2613-0.36379 0.36573-0.22674 0.70823-0.58884 1.0235-1.0914 0-0.00001 2.4642 0 2.4642 0l-0.2359 0.46042c-0.46661 0.91926-1.1248 1.6362-1.932 2.1448-0.81971 0.50865-1.7797 0.78442-2.858 0.78442-1.3935 0-2.4098-0.43759-3.0529-1.3017-0.63687-0.84573-0.78843-2.0155-0.45424-3.4863 0.3405-1.4953 1.0005-2.6888 1.9904-3.5223 0.89292-0.74775 1.9157-1.1625 3.0354-1.2448zm-34.504 0.17242h2.3452c0.00001 0 0.29002 5.4548 0.29632 5.5345 0.0946-0.19534 0.16803-0.3613 0.17741-0.38462l2.5811-5.1499h2.1484s0.1969 5.3883 0.1969 5.4189c0.0631-0.1103 2.9359-5.4189 2.9359-5.4189h2.3238l-5.1233 9.1913h-2.1074c0-0.00001-0.20377-4.9835-0.21638-5.2654-0.87017 1.7343-2.6416 5.2654-2.6416 5.2654h-2.1659l-0.75055-9.1913zm-55.054 1.7412c-0.54317 0.02228-1.0361 0.21404-1.4972 0.576-0.36572 0.28191-0.61357 0.66851-0.80904 1.0914 0 0.00001 3.8834 0 3.8834 0 0.0063-0.0674 0.01949-0.14903 0.01949-0.21031-0.000008-0.34931-0.06391-0.62141-0.1774-0.80526-0.27744-0.44124-0.68868-0.65179-1.3003-0.65179-0.03664 0-0.08271-0.0015-0.11892 0zm10.266 0c-0.54317 0.02228-1.0361 0.21404-1.4972 0.576-0.36572 0.28191-0.60727 0.66851-0.80904 1.0914 0 0.00001 3.8834 0 3.8834 0 0.0063-0.0674 0.01949-0.14903 0.01949-0.21031-0.000004-0.34931-0.05759-0.62141-0.1774-0.80526-0.05508-0.08963-0.12943-0.178-0.1969-0.24821-0.26328-0.26441-0.62558-0.40358-1.1034-0.40358-0.03665 0-0.08271-0.0015-0.11892 0zm79.409 0c-0.55856 0.01671-1.0792 0.20198-1.5557 0.576-0.35942 0.28191-0.60727 0.66851-0.80905 1.0914 0.00001 0.00001 3.8639 0 3.8639 0 0.006-0.0674 0.0195-0.14903 0.0195-0.21031 0-0.34931-0.0576-0.62141-0.17741-0.80526-0.27114-0.43512-0.68868-0.64566-1.3003-0.65179-0.0182 0.000184-0.023-0.000544-0.0409 0zm-51.625 0.03979c-0.52125 0.06016-1.006 0.28962-1.4582 0.68778-0.54227 0.47802-0.93686 1.2297-1.1639 2.2225-0.09458 0.41673-0.13646 0.77269-0.13646 1.0914 0.000007 0.43511 0.08513 0.77714 0.25538 1.0345 0.04533 0.06607 0.10572 0.13574 0.15791 0.19136 0.28031 0.28927 0.67106 0.43958 1.1619 0.43958 0.63685-0.00001 1.1991-0.23061 1.7351-0.70863 0.54228-0.48415 0.9286-1.2412 1.1619-2.2585 0.2144-0.93152 0.18374-1.6278-0.11892-2.069-0.29005-0.42898-0.71391-0.63094-1.3003-0.63094-0.0995 0-0.19785-0.01115-0.29437 0zm35.606 3.3499c-0.53597 0.14095-1.1375 0.25959-1.932 0.36379-0.59271 0.0858-1.0135 0.17712-1.2594 0.26905-0.21439 0.08579-0.38718 0.20445-0.53221 0.36379-0.13873 0.1532-0.2327 0.31447-0.27684 0.49831-0.0126 0.07355-0.0195 0.14903-0.0195 0.21032 0 0.0049-0.00011 0.01402 0 0.01895 0.00067 0.01458-0.002 0.04277 0 0.05684 0.004 0.0278 0.0117 0.07074 0.0195 0.09663 0.003 0.0085 0.0163 0.02956 0.0195 0.03789 0.007 0.01647 0.011 0.04111 0.0195 0.05685 0.009 0.01554 0.0303 0.04387 0.0409 0.05873 0.0165 0.02206 0.0383 0.05511 0.0585 0.0758 0.15764 0.17159 0.47202 0.2501 0.92601 0.2501 0.49814 0.00001 0.97785-0.0924 1.4192-0.30696 0.43509-0.20836 0.78446-0.51949 1.043-0.88105 0.18918-0.2574 0.34131-0.65426 0.47373-1.169z" fill="#333336"/>
<g transform="matrix(.63172 0 0 .63172 146.29 113.19)" fill-opacity=".94118">
<path d="m0.03 0h-0.03c0.97 0.01 1.61 0.34 2.04 1.05 0.19 0.3 0.29 0.75 0.29 1.32 0 0.1-0.02 0.23-0.03 0.34h0.04c0-0.11 0.02-0.24 0.02-0.34 0-0.57-0.09-1.02-0.28-1.32-0.43-0.72-1.08-1.05-2.05-1.05z" fill-opacity=".94118"/>
</g>
</g>
</svg>