<?xml version="1.0" encoding="UTF-8" standalone="no"?>
<!-- Created with Inkscape (http://www.inkscape.org/) -->

<svg
   xmlns:dc="http://purl.org/dc/elements/1.1/"
   xmlns:cc="http://creativecommons.org/ns#"
   xmlns:rdf="http://www.w3.org/1999/02/22-rdf-syntax-ns#"
   xmlns:svg="http://www.w3.org/2000/svg"
   xmlns="http://www.w3.org/2000/svg"
   xmlns:sodipodi="http://sodipodi.sourceforge.net/DTD/sodipodi-0.dtd"
   xmlns:inkscape="http://www.inkscape.org/namespaces/inkscape"
   width="125.8661"
   height="93.804306"
   id="svg2"
   version="1.1"
   inkscape:version="0.48.4 r9939"
   sodipodi:docname="Nouveau document 1">
  <defs
     id="defs4" />
  <sodipodi:namedview
     id="base"
     pagecolor="#ffffff"
     bordercolor="#666666"
     borderopacity="1.0"
     inkscape:pageopacity="0.0"
     inkscape:pageshadow="2"
     inkscape:zoom="2.8"
     inkscape:cx="105.36263"
     inkscape:cy="36.864472"
     inkscape:document-units="px"
     inkscape:current-layer="layer1"
     showgrid="false"
     fit-margin-top="0"
     fit-margin-left="0"
     fit-margin-right="0"
     fit-margin-bottom="0"
     inkscape:window-width="1865"
     inkscape:window-height="1026"
     inkscape:window-x="1735"
     inkscape:window-y="24"
     inkscape:window-maximized="1" />
  <metadata
     id="metadata7">
    <rdf:RDF>
      <cc:Work
         rdf:about="">
        <dc:format>image/svg+xml</dc:format>
        <dc:type
           rdf:resource="http://purl.org/dc/dcmitype/StillImage" />
        <dc:title></dc:title>
      </cc:Work>
    </rdf:RDF>
  </metadata>
  <g
     inkscape:label="Calque 1"
     inkscape:groupmode="layer"
     id="layer1"
     transform="translate(-160.5704,-200.57069)">
    <g
       id="g3801"
       transform="translate(1.4766541,0)">
      <rect
         y="201.81374"
         x="159.6041"
         height="37.501919"
         width="37.501919"
         id="rect3023"
         style="color:#000000;fill:#ffffff;fill-opacity:1;fill-rule:nonzero;stroke:#000000;stroke-width:1;stroke-linecap:butt;stroke-linejoin:miter;stroke-miterlimit:4;stroke-opacity:1;stroke-dasharray:none;stroke-dashoffset:0;marker:none;visibility:visible;display:inline;overflow:visible;enable-background:accumulate" />
      <path
         inkscape:connector-curvature="0"
         id="path3798"
         d="m 162.36454,208.61616 c 1.46746,0.0706 2.56903,-1.17748 3.85727,-1.8645 1.23542,-0.29763 1.86501,-1.04552 3.17105,-1.58681 0.32513,-1.00592 1.9743,-0.64599 2.72065,-1.38053 0.73742,-0.41485 1.80246,-0.60444 0.66794,0.45001 -0.97995,1.30827 -1.88011,2.67485 -2.92785,3.91425 -0.56086,0.70444 -1.29131,1.09701 -1.86498,1.70142 -1.19057,0.66091 -1.9807,1.36331 -2.958,2.25349 -0.38997,0.64338 -1.78093,1.73148 -1.30577,2.03476 0.89807,-0.57749 2.94535,-1.93841 3.35938,-1.93039 1.164,-0.31264 2.6868,-0.86492 2.98879,-1.29083 1.92389,-0.84927 4.2032,-1.77642 5.61855,-3.02854 0.54742,-0.6867 2.03727,-0.88774 3.01315,-1.11413 0.86155,-0.74511 2.29484,-1.0496 3.15777,-1.49446 0.38685,5.7e-4 1.75871,-0.82183 1.56578,-0.61118 -0.0389,-0.17165 -1.91678,1.52717 -1.59262,1.28858 -1.56375,1.30274 -3.23861,2.45542 -4.73429,3.80929 -1.26828,0.62633 -2.21144,1.71603 -3.54417,2.25858 -1.04359,0.73491 -1.72865,0.43004 -2.46393,1.30777 -1.20006,0.94299 -2.29089,1.91541 -3.51416,2.64601 -0.89489,0.80181 -1.37432,1.38858 -2.59965,1.97751 0.4705,0.24803 -1.39251,0.91289 -1.16658,1.5154 1.24088,-1.20377 2.65331,-2.27945 4.1035,-3.26695 1.94214,-1.27025 3.69672,-2.7741 5.55745,-4.13745 1.58821,-1.01535 3.55074,-1.28139 5.07133,-2.47232 1.76786,-0.67945 3.34152,-1.60313 5.13235,-2.24337 1.32917,-0.65217 2.89323,-0.70055 3.94833,-1.87291 1.22596,-0.20463 2.26017,-0.99313 3.30547,-1.46445 -0.67617,0.73125 -1.79544,1.89902 -2.03474,1.66634 -1.25531,1.00811 -2.19267,1.9431 -3.63473,2.87586 -1.73747,1.16235 -3.27281,2.56631 -4.98639,3.74094 -1.42608,1.10997 -2.77582,2.24994 -4.31494,3.15251 -1.23664,0.81731 -2.28294,1.66589 -3.53983,2.51805 -1.07789,0.91014 -2.0922,1.92271 -3.25453,2.72763 -0.8132,0.57101 -1.58542,1.19971 -2.2672,1.95575 -0.58535,-0.23645 -1.32996,0.6997 -0.3516,0.47033 -0.82623,0.50066 -1.95967,0.56441 -2.34474,1.47249 -0.14172,-0.52411 -1.03612,1.56991 0.20242,0.58814 1.63158,-1.32898 3.1345,-2.86752 4.98195,-3.92214 0.65425,-0.34038 2.8469,-1.39818 2.54495,-1.15969 -0.71557,0.14033 1.48174,-1.02516 1.98705,-1.26131 2.06044,-0.95427 3.88899,-2.35541 5.89425,-3.40384 1.97645,-0.30567 3.6062,-1.51173 5.45593,-2.20269 0.80227,-0.55567 2.63902,-1.15087 2.54026,-1.1843 1.20116,-0.009 3.21536,-1.86563 3.26205,-1.80075 0.9932,-0.89832 2.58817,-1.56293 3.03495,-2.38736 0.27837,0.39084 0.66369,-1.15421 1.13258,-0.62474 0.82647,-0.26333 2.31094,-1.221 0.8715,0.0424 -0.26076,-0.45871 -1.87282,1.61309 -2.67484,2.04124 -1.52246,1.143 -2.9708,2.38173 -4.61284,3.34854 -1.24623,1.05395 -2.67707,1.87733 -3.78624,3.08109 -1.58424,0.81659 -2.7507,2.2705 -4.07225,3.46192 -1.38518,1.26354 -2.8709,2.42559 -4.34318,3.504 -0.9946,1.26643 -1.73879,2.82412 -3.14732,3.73314 -0.9234,0.62191 -1.99588,1.55662 -3.17408,2.18584 -1.12333,1.20806 -2.71814,1.78465 -3.74024,3.12856 -1.18767,0.53816 -0.68889,0.809 -1.47433,1.70327 -0.5463,0.58732 -1.16273,1.61147 -1.1336,2.76105 1.60505,-0.10538 2.59984,-1.73077 4.1338,-2.25479 1.41509,-0.19449 2.59943,-1.14823 3.89584,-1.71271 -0.0553,0.33352 1.74352,-0.63794 2.36697,-0.96288 1.42927,-0.78839 3.01824,-1.32813 4.23066,-2.4605 1.93472,-0.87795 3.3937,-2.54001 5.32413,-3.42323 1.96237,-1.26819 3.71644,-2.90814 5.5598,-4.24883 1.05856,-0.87022 2.08634,-1.76375 3.13043,-2.50926 1.39414,-0.83515 2.51734,-1.82165 3.77939,-2.67549 1.17411,-0.53695 -0.64439,2.15491 -1.1336,2.53096 -0.37771,0.78714 -1.66181,2.00335 -1.14032,1.42835 -1.00317,1.37891 -1.80046,2.82798 -2.94065,4.09374 -1.2847,2.02394 -3.13262,3.56328 -4.76113,5.29201 -1.12207,0.75353 -2.0255,1.81409 -3.17409,2.53096 -1.28507,0.51262 -2.43538,2.14295 -3.12975,2.7808 -0.92468,0.59635 -1.64484,1.18764 -1.85809,1.82095 -0.65933,0.23469 -0.84416,1.09464 0.21417,0.60765 1.59789,-0.86795 2.99326,-1.97471 4.44014,-3.01507 1.44701,-1.25975 3.08033,-2.30545 4.40215,-3.70911 1.88707,-0.90398 3.05385,-2.83669 4.76418,-4.01953 1.44721,-0.97488 2.85641,-2.04904 4.31508,-2.97798 0.39284,-0.30069 1.62478,-1.35781 2.62474,-1.82672 0.61146,-0.89581 1.18739,-1.22199 0.32453,-0.0149 -1.95501,2.04612 -4.04857,3.96705 -5.88883,6.11895 0.68075,-0.04 -1.76275,1.79494 -1.46662,2.85932 -0.76246,1.51991 -1.91317,2.7491 -2.84696,4.13671 -0.25455,1.07694 -0.83624,1.75901 -1.77191,2.45297 -0.0331,1.48359 1.87548,-1.00821 2.78876,-0.74113 1.85693,-0.23391 3.7617,-0.40394 5.33132,-1.48175 0.56709,-0.47139 1.03521,-1.07973 0.90688,-1.84071"
         style="fill:none;stroke:#000000;stroke-width:5.69939709;stroke-linecap:round;stroke-linejoin:round;stroke-miterlimit:4;stroke-opacity:1;stroke-dasharray:none" />
    </g>
    <rect
       style="color:#000000;fill:#ffffff;fill-opacity:1;fill-rule:nonzero;stroke:#000000;stroke-width:1;stroke-linecap:butt;stroke-linejoin:miter;stroke-miterlimit:4;stroke-opacity:1;stroke-dasharray:none;stroke-dashoffset:0;marker:none;visibility:visible;display:inline;overflow:visible;enable-background:accumulate"
       id="rect3023-9"
       width="37.501919"
       height="37.501919"
       x="161.08075"
       y="256.36469" />
    <g
       id="g3834">
      <path
         inkscape:connector-curvature="0"
         id="path3830"
         d="m 164.5286,260.52885 c 0.40221,0.39771 0.65925,0.72386 1.13642,1.01016 0.0807,0.0484 0.17724,0.0698 0.25254,0.12627 0.0952,0.0714 0.15957,0.17817 0.25253,0.25253 0.23701,0.18961 0.52445,0.31078 0.75762,0.50508 0.13718,0.11432 0.2335,0.27502 0.37881,0.37881 0.15317,0.10941 0.34545,0.15277 0.50507,0.25254 1.24361,0.77725 -0.14918,-0.0172 0.88389,0.75761 0.19633,0.14725 0.42714,0.24267 0.63134,0.37881 0.35021,0.23347 0.67344,0.50507 1.01015,0.75761 0.16836,0.12627 0.34779,0.239 0.50508,0.37881 0.22244,0.19773 0.4209,0.4209 0.63134,0.63134 0.29463,0.29463 0.58926,0.58926 0.88389,0.88389 0.12627,0.12627 0.24322,0.26259 0.37881,0.37881 0.15978,0.13695 0.33671,0.25253 0.50507,0.3788 0.16836,0.12627 0.32997,0.26207 0.50508,0.37881 0.2042,0.13614 0.42714,0.24267 0.63134,0.37881 0.35021,0.23347 0.66976,0.51005 1.01016,0.75761 0.002,0.002 1.76742,1.26242 1.76776,1.26269 0.13944,0.11155 0.24163,0.26449 0.37881,0.37881 0.15294,0.12745 0.52639,0.29516 0.63135,0.50508 0.0376,0.0753 -0.0467,0.18249 0,0.25253 0.0522,0.0783 0.18598,0.0597 0.25253,0.12627 0.0665,0.0666 0.0778,0.17184 0.12627,0.25254 0.0781,0.13013 0.21085,0.23289 0.25254,0.37881 0.0463,0.16188 -0.0532,0.34536 0,0.50507 0.0421,0.12627 0.29463,0.25254 0.37881,0.37881 0.0522,0.0783 0.0741,0.17423 0.12627,0.25254 0.0991,0.14858 0.27166,0.23595 0.3788,0.37881 0.0565,0.0753 0.0698,0.17724 0.12627,0.25254 0.14286,0.19047 0.38258,0.30091 0.50508,0.50507 0.0685,0.11413 0.0431,0.27488 0.12627,0.37881 0.0948,0.1185 0.2603,0.15774 0.37881,0.25254 0.093,0.0744 0.16835,0.16836 0.25253,0.25253 0.12627,0.12627 0.25254,0.25254 0.37881,0.37881 0.0842,0.0842 0.15349,0.1865 0.25254,0.25254 0.2971,0.19807 0.62556,0.24676 0.88388,0.50508 0.4209,0.42089 0.0421,0.3788 0.63135,0.63134 0.15951,0.0684 0.3544,0.0402 0.50507,0.12627 0.15505,0.0886 0.24163,0.26449 0.37881,0.37881 0.11658,0.0971 0.25532,0.16433 0.37881,0.25254 0.17125,0.12232 0.33383,0.25648 0.50508,0.3788 0.46344,0.33103 0.95552,0.63864 1.38895,1.01016 0.2578,0.22097 0.63837,0.68746 0.88389,0.88388 0.237,0.1896 0.5148,0.32297 0.75761,0.50508 0.2381,0.17857 0.40271,0.44081 0.63135,0.63134 0.23316,0.19431 0.52061,0.31547 0.75761,0.50508 0.54707,0.43765 -0.042,0.0674 0.50508,0.50507 0.1185,0.0948 0.2603,0.15774 0.37881,0.25254 0.093,0.0744 0.1573,0.18111 0.25253,0.25254 0.0753,0.0565 0.17184,0.0778 0.25254,0.12627 0.13013,0.0781 0.24868,0.17446 0.37881,0.25254 0.0807,0.0484 0.18599,0.0597 0.25254,0.12627 0.0666,0.0666 0.048,0.20033 0.12627,0.25253 0.07,0.0467 0.17724,-0.0376 0.25253,0 0.0753,0.0376 -0.0376,0.17725 0,0.25254 0.0266,0.0532 0.0996,0.073 0.12627,0.12627 0.0281,0.0562 -0.0192,0.44732 0,0.50508 0.0188,0.0565 0.0996,0.073 0.12627,0.12627 0.0342,0.0685 -0.0345,0.47052 0,0.50507 0.0298,0.0298 0.0965,-0.0298 0.12627,0 6.7e-4,6.7e-4 -0.001,0.37459 0,0.37881 0.0915,0.36621 0.0985,0.14777 0.25254,0.37881 0.0522,0.0783 0.0597,0.18599 0.12627,0.25254 0.0666,0.0666 0.17423,0.0741 0.25254,0.12626 0.0495,0.033 0.0842,0.0842 0.12627,0.12627 0.0421,0.0421 0.0996,0.073 0.12627,0.12627 0.0188,0.0376 -0.0188,0.0886 0,0.12627 0.26275,0.5255 -0.009,-0.13498 0.25253,0.12627 0.0298,0.0298 -0.0298,0.0965 0,0.12627 0.0298,0.0298 0.0965,-0.0298 0.12627,0 0.0298,0.0298 -0.0298,0.0965 0,0.12627 0.0298,0.0298 0.0886,-0.0188 0.12627,0 0.0532,0.0266 0.0842,0.0842 0.12627,0.12627"
         style="fill:none;stroke:#8f8f8f;stroke-width:2;stroke-linecap:round;stroke-linejoin:round;stroke-miterlimit:4;stroke-opacity:1;stroke-dasharray:none" />
      <path
         inkscape:connector-curvature="0"
         id="path3832"
         d="m 190.76193,261.80949 c 0,0.16836 0.033,0.33999 0,0.50507 -0.0117,0.0584 -0.0842,0.0842 -0.12627,0.12627 -0.43262,0.43262 -0.0563,0.10955 -0.50508,0.37881 -0.0121,0.007 -0.75418,0.50361 -0.75761,0.50508 -0.15951,0.0684 -0.3544,0.0402 -0.50508,0.12627 -4.16364,2.37922 1.56521,-0.54015 -2.52538,1.64149 -0.29283,0.15618 -1.10415,0.41014 -1.38896,0.50508 -0.25254,0.0842 -0.51952,0.13349 -0.75761,0.25254 -0.18823,0.0941 -0.31349,0.29172 -0.50508,0.37881 -0.27895,0.12679 -0.59532,0.14947 -0.88388,0.25253 -1.09667,0.39167 -0.58247,0.22322 -1.26269,0.63135 -0.0807,0.0484 -0.18599,0.0597 -0.25254,0.12627 -0.0666,0.0666 -0.0597,0.18599 -0.12627,0.25254 -0.0666,0.0666 -0.17725,0.0698 -0.25254,0.12627 -0.0952,0.0714 -0.16836,0.16835 -0.25254,0.25253 -0.0842,0.0842 -0.17817,0.15958 -0.25254,0.25254 -0.76634,0.95793 0.18134,-0.17595 -0.3788,0.75762 -0.0613,0.10208 -0.16836,0.16836 -0.25254,0.25253 -0.12627,0.12627 -0.26449,0.24163 -0.37881,0.37881 -0.25983,0.31181 -0.37781,0.69324 -0.63134,1.01015 -0.0744,0.093 -0.19129,0.15046 -0.25254,0.25254 -0.0685,0.11413 -0.0768,0.25523 -0.12627,0.37881 -0.37159,0.92896 0.16624,-0.625 -0.25254,0.63135 -0.0421,0.12626 -0.0578,0.26467 -0.12627,0.3788 -0.70467,1.17446 0.25307,-0.88494 -0.50507,0.63135 -0.11905,0.23809 -0.15368,0.51045 -0.25254,0.75761 -0.189,0.47249 -0.0824,0.0384 -0.37881,0.63135 -0.0188,0.0376 0.0133,0.0863 0,0.12627 -0.0298,0.0893 -0.0842,0.16836 -0.12627,0.25253 -0.0421,0.0842 -0.0741,0.17423 -0.12627,0.25254 -0.12386,0.1858 -0.38121,0.31928 -0.50507,0.50508 -0.10442,0.15662 -0.14813,0.34846 -0.25254,0.50508 -0.0991,0.14858 -0.27167,0.23595 -0.37881,0.3788 -0.0565,0.0753 -0.0698,0.17725 -0.12627,0.25254 -0.17677,0.2357 -0.45457,0.39564 -0.63134,0.63135 -0.0565,0.0753 -0.0698,0.17724 -0.12627,0.25253 -0.14286,0.19048 -0.36222,0.3146 -0.50508,0.50508 -0.29892,0.39856 0.0949,0.15765 -0.37881,0.63135 -0.0665,0.0666 -0.18598,0.0597 -0.25253,0.12626 -0.10731,0.10731 -0.16149,0.25741 -0.25254,0.37881 -0.74003,0.98671 -0.26257,0.26658 -0.88389,1.13642 -0.0882,0.12349 -0.18467,0.24308 -0.25253,0.37881 -0.0595,0.11905 -0.0738,0.25647 -0.12627,0.37881 -0.0742,0.17301 -0.16836,0.33672 -0.25254,0.50507 -0.0421,0.0842 -0.0778,0.17184 -0.12627,0.25254 -0.0781,0.13013 -0.17446,0.24868 -0.25254,0.37881 -0.0484,0.0807 -0.0597,0.18599 -0.12627,0.25254 -0.0666,0.0666 -0.17423,0.0741 -0.25254,0.12627 -0.29008,0.19339 0.0541,0.0721 -0.25253,0.3788 -0.0298,0.0298 -0.0965,-0.0298 -0.12627,0 -0.0298,0.0298 0.0298,0.0965 0,0.12627 -0.0298,0.0298 -0.0886,-0.0188 -0.12627,0 -0.0532,0.0266 -0.0842,0.0842 -0.12627,0.12627 -0.0421,0.0421 -0.0842,0.0842 -0.12627,0.12627 -0.16836,0.16836 -0.33672,0.33672 -0.50508,0.50508 -0.0421,0.0421 -0.0933,0.0767 -0.12626,0.12627 -0.0522,0.0783 -0.0741,0.17423 -0.12627,0.25253 -0.033,0.0495 -0.0842,0.0842 -0.12627,0.12627 -0.0421,0.0421 -0.0768,0.0933 -0.12627,0.12627 -0.0783,0.0522 -0.16836,0.0842 -0.25254,0.12627 -0.0842,0.0842 -0.1573,0.18111 -0.25254,0.25254 -0.20445,0.15334 -0.25007,0.0594 -0.37881,0.25254 -0.0522,0.0783 -0.0698,0.17724 -0.12626,0.25254 -0.10715,0.14285 -0.27976,0.23022 -0.37881,0.3788 -0.0522,0.0783 -0.0741,0.17423 -0.12627,0.25254 -0.033,0.0495 -0.0842,0.0842 -0.12627,0.12627 -0.0421,0.0421 -0.073,0.0996 -0.12627,0.12627 -0.0377,0.0188 -0.0842,0 -0.12627,0"
         style="fill:none;stroke:#8f8f8f;stroke-width:2;stroke-linecap:round;stroke-linejoin:round;stroke-miterlimit:4;stroke-opacity:1;stroke-dasharray:none" />
    </g>
    <text
       xml:space="preserve"
       style="font-size:15px;font-style:normal;font-variant:normal;font-weight:normal;font-stretch:normal;text-align:start;line-height:125%;letter-spacing:0px;word-spacing:0px;writing-mode:lr-tb;text-anchor:start;fill:#000000;fill-opacity:1;stroke:none;font-family:Latin Modern Math;-inkscape-font-specification:Latin Modern Math"
       x="216.28572"
       y="225.65137"
       id="text3838"
       sodipodi:linespacing="125%"><tspan
         sodipodi:role="line"
         id="tspan3840"
         x="216.28572"
         y="225.65137">Bien coché</tspan></text>
    <text
       xml:space="preserve"
       style="font-size:15px;font-style:normal;font-variant:normal;font-weight:normal;font-stretch:normal;text-align:start;line-height:125%;letter-spacing:0px;word-spacing:0px;writing-mode:lr-tb;text-anchor:start;fill:#000000;fill-opacity:1;stroke:none;font-family:Latin Modern Math;-inkscape-font-specification:Latin Modern Math"
       x="216.27072"
       y="280.26816"
       id="text3842"
       sodipodi:linespacing="125%"><tspan
         sodipodi:role="line"
         id="tspan3844"
         x="216.27072"
         y="280.26816">Mal coché</tspan></text>
  </g>
</svg>
